<?xml version="1.0" encoding="UTF-8"?>
<svg id="Layer_1" xmlns="http://www.w3.org/2000/svg" xmlns:xlink="http://www.w3.org/1999/xlink" version="1.1" viewBox="0 0 32 32">
  <!-- Generator: Adobe Illustrator 29.1.0, SVG Export Plug-In . SVG Version: 2.1.0 Build 142)  -->
  <defs>
    <style>
      .st0 {
        fill: none;
      }

      .st1 {
        clip-path: url(#clippath-1);
      }

      .st2 {
        fill: #fff;
      }

      .st3 {
        clip-path: url(#clippath);
      }

      .st4 {
        fill: #e50b14;
      }

      .st5 {
        fill: #004c96;
        fill-rule: evenodd;
      }
    </style>
    <clipPath id="clippath">
      <path class="st0" d="M16,0H3.7s-.5,4.5-.5,14.5,7.5,15,12.8,17.5c5.3-2.5,12.8-7.6,12.8-17.5s-.5-14.5-.5-14.5h-12.3Z"/>
    </clipPath>
    <clipPath id="clippath-1">
      <path class="st0" d="M16,0H3.7s-.5,4.5-.5,14.5,7.5,15,12.8,17.5c5.3-2.5,12.8-7.6,12.8-17.5s-.5-14.5-.5-14.5h-12.3Z"/>
    </clipPath>
  </defs>
  <path class="st4" d="M16,32c-5.3-2.5-12.8-7.6-12.8-17.5S3.7,0,3.7,0h24.6s.5,4.5.5,14.5-7.5,15-12.8,17.5"/>
  <g>
    <g class="st3">
      <path class="st2" d="M17.1,11.9c1.4,0,4.2,0,6.7-.7,0,0,0,.9,0,1.9s0,1.9,0,1.9c-2.3-.8-5.1-.8-6.7-.8v5.5h-2.3v-5.5c-1.6,0-4.4,0-6.7.8,0,0,0-.9,0-1.9s0-1.9,0-1.9c2.5.8,5.3.8,6.7.7v-3.5c-1.3,0-3.2,0-5.3.8,0,0,0-.9,0-1.9s0-1.9,0-1.9c2.1.7,4,.8,5.3.8,0-2.2-.7-4.9-.7-4.9,0,0,1.3.1,1.8.1s1.8-.1,1.8-.1c0,0-.6,2.8-.7,4.9,1.3,0,3.2,0,5.3-.8,0,0,0,.9,0,1.9s0,1.9,0,1.9c-2.1-.7-4-.8-5.3-.8v3.5"/>
    </g>
    <g class="st1">
      <path class="st5" d="M15.8,35.3l-10.9-9.7s1.4-4.5,4.1-4.5,3,1.7,3,1.7c0,0,1.4-3.7,4.1-3.7s4.1,3.7,4.1,3.7c0,0,.8-1.7,3-1.7s4.1,4.5,4.1,4.5l-11.4,9.7"/>
    </g>
  </g>
</svg>